<svg id="get_stamp" data-name="get stamp" xmlns="http://www.w3.org/2000/svg" width="72" height="72" viewBox="0 0 72 72">
  <metadata><?xpacket begin="﻿" id="W5M0MpCehiHzreSzNTczkc9d"?>
<x:xmpmeta xmlns:x="adobe:ns:meta/" x:xmptk="Adobe XMP Core 5.6-c138 79.159824, 2016/09/14-01:09:01        ">
   <rdf:RDF xmlns:rdf="http://www.w3.org/1999/02/22-rdf-syntax-ns#">
      <rdf:Description rdf:about=""/>
   </rdf:RDF>
</x:xmpmeta>
                                                                                                    
                                                                                                    
                                                                                                    
                                                                                                    
                                                                                                    
                                                                                                    
                                                                                                    
                                                                                                    
                                                                                                    
                                                                                                    
                                                                                                    
                                                                                                    
                                                                                                    
                                                                                                    
                                                                                                    
                                                                                                    
                                                                                                    
                                                                                                    
                                                                                                    
                                                                                                    
                           
<?xpacket end="w"?></metadata>
<defs>
    <style>
      .cls-1 {
        fill: #ebebeb;
      }

      .cls-2 {
        fill: #878787;
        fill-rule: evenodd;
      }
    </style>
  </defs>
  <rect class="cls-1" width="72" height="72" rx="16" ry="16"/>
  <path id="Get_Stamp-2" data-name="Get Stamp" class="cls-2" d="M2570.09,2895.57h-4v0.81h3.05v2.94a2.085,2.085,0,0,1-.37.33,2.745,2.745,0,0,1-.6.32,4.947,4.947,0,0,1-.86.25,6.547,6.547,0,0,1-1.15.09,3.3,3.3,0,0,1-2.61-1.19,4.108,4.108,0,0,1-.72-1.38,5.992,5.992,0,0,1-.26-1.81v-1.4a6.39,6.39,0,0,1,.23-1.75,4.051,4.051,0,0,1,.66-1.35,2.927,2.927,0,0,1,1.08-.86,3.247,3.247,0,0,1,1.47-.31,3.73,3.73,0,0,1,1.32.21,2.716,2.716,0,0,1,.92.55,2.458,2.458,0,0,1,.58.81,4.045,4.045,0,0,1,.3.97h0.96a4.675,4.675,0,0,0-.39-1.33,3.532,3.532,0,0,0-.8-1.07,3.713,3.713,0,0,0-1.23-.71,5.056,5.056,0,0,0-1.67-.25,4.46,4.46,0,0,0-1.83.36,3.883,3.883,0,0,0-1.38,1.02,4.531,4.531,0,0,0-.87,1.61,6.7,6.7,0,0,0-.31,2.12v1.38a6.359,6.359,0,0,0,.34,2.16,4.593,4.593,0,0,0,.94,1.63,4.087,4.087,0,0,0,1.43,1.04,4.615,4.615,0,0,0,1.84.37,7.2,7.2,0,0,0,1.56-.16,5.532,5.532,0,0,0,1.15-.38,3.181,3.181,0,0,0,.78-0.5,2.613,2.613,0,0,0,.44-0.47v-4.05Zm7.19,5.44a3.785,3.785,0,0,0,.82-0.32,3.148,3.148,0,0,0,.64-0.48,3.349,3.349,0,0,0,.49-0.58l-0.59-.44a2.875,2.875,0,0,1-1.03.87,2.943,2.943,0,0,1-1.32.28,2.591,2.591,0,0,1-1.18-.27,2.843,2.843,0,0,1-.91-0.71,3.356,3.356,0,0,1-.59-1.07,3.981,3.981,0,0,1-.21-1.3v-0.18h6.01v-0.57a5.443,5.443,0,0,0-.22-1.56,3.784,3.784,0,0,0-.64-1.23,2.969,2.969,0,0,0-1.05-.8,3.365,3.365,0,0,0-1.42-.29,3.3,3.3,0,0,0-1.38.3,3.684,3.684,0,0,0-1.14.87,3.914,3.914,0,0,0-.79,1.35,4.981,4.981,0,0,0-.29,1.77v0.34a4.7,4.7,0,0,0,.28,1.66,3.836,3.836,0,0,0,.78,1.31,3.671,3.671,0,0,0,1.19.86,3.787,3.787,0,0,0,1.52.31A4.1,4.1,0,0,0,2577.28,2901.01Zm-0.17-7.62a2.241,2.241,0,0,1,.75.61,2.928,2.928,0,0,1,.45.88,3.9,3.9,0,0,1,.17,1.03v0.1h-5.05a4.183,4.183,0,0,1,.3-1.17,3.144,3.144,0,0,1,.57-0.9,2.525,2.525,0,0,1,.8-0.58,2.262,2.262,0,0,1,.98-0.2A2.116,2.116,0,0,1,2577.11,2893.39Zm5.02-3.04v2.17h-1.55v0.76h1.55v5.63a3.489,3.489,0,0,0,.14,1.06,1.634,1.634,0,0,0,.38.69,1.321,1.321,0,0,0,.57.36,2.546,2.546,0,0,0,.74.11,5.276,5.276,0,0,0,.55-0.04,2.166,2.166,0,0,0,.45-0.1l-0.04-.76c-0.11.01-.22,0.03-0.35,0.05a2.728,2.728,0,0,1-.41.03,1.4,1.4,0,0,1-.41-0.06,0.687,0.687,0,0,1-.35-0.2,0.961,0.961,0,0,1-.25-0.42,2.382,2.382,0,0,1-.08-0.72v-5.63h1.74v-0.76h-1.74v-2.17h-0.94Zm-25.31,30.3a1.9,1.9,0,0,1-.59.68,2.9,2.9,0,0,1-.92.43,4.556,4.556,0,0,1-1.21.15,5.158,5.158,0,0,1-1.16-.13,3.287,3.287,0,0,1-1.05-.44,2.491,2.491,0,0,1-.77-0.81,2.381,2.381,0,0,1-.29-1.21h-0.96a3.155,3.155,0,0,0,.18,1.09,3.046,3.046,0,0,0,.47.87,3.142,3.142,0,0,0,.71.65,4.288,4.288,0,0,0,.88.45,5.228,5.228,0,0,0,.98.26,5.832,5.832,0,0,0,1.01.09,5.551,5.551,0,0,0,1.56-.21,3.689,3.689,0,0,0,1.23-.58,2.7,2.7,0,0,0,.81-0.94,2.524,2.524,0,0,0,.29-1.24,2.872,2.872,0,0,0-.24-1.21,2.722,2.722,0,0,0-.74-0.93,4.6,4.6,0,0,0-1.18-.7,13.945,13.945,0,0,0-1.59-.55,10.067,10.067,0,0,1-1.44-.48,4.023,4.023,0,0,1-.94-0.54,1.76,1.76,0,0,1-.51-0.64,1.829,1.829,0,0,1,.03-1.56,1.9,1.9,0,0,1,.53-0.67,2.756,2.756,0,0,1,.89-0.45,3.892,3.892,0,0,1,1.23-.17,3.691,3.691,0,0,1,1.25.19,2.7,2.7,0,0,1,.92.54,2.108,2.108,0,0,1,.56.82,2.664,2.664,0,0,1,.2,1.03h0.96a3.26,3.26,0,0,0-.27-1.33,3.178,3.178,0,0,0-.78-1.08,3.6,3.6,0,0,0-1.22-.73,4.829,4.829,0,0,0-1.62-.26,5.338,5.338,0,0,0-1.53.21,3.967,3.967,0,0,0-1.2.6,2.8,2.8,0,0,0-.79.93,2.528,2.528,0,0,0-.28,1.2,2.583,2.583,0,0,0,.26,1.17,2.68,2.68,0,0,0,.74.88,4.776,4.776,0,0,0,1.16.67,16.139,16.139,0,0,0,1.54.53,11,11,0,0,1,1.48.5,3.5,3.5,0,0,1,.95.55,1.672,1.672,0,0,1,.52.66,2.156,2.156,0,0,1,.15.83A1.817,1.817,0,0,1,2556.82,2920.65Zm3.93-8.7v2.17h-1.55v0.76h1.55v5.63a3.2,3.2,0,0,0,.14,1.06,1.74,1.74,0,0,0,.37.69,1.354,1.354,0,0,0,.58.36,2.5,2.5,0,0,0,.74.11,5.276,5.276,0,0,0,.55-0.04,1.923,1.923,0,0,0,.44-0.1l-0.04-.76c-0.1.01-.22,0.03-0.35,0.05a2.6,2.6,0,0,1-.4.03,1.471,1.471,0,0,1-.42-0.06,0.73,0.73,0,0,1-.35-0.2,1.056,1.056,0,0,1-.24-0.42,2.341,2.341,0,0,1-.09-0.72v-5.63h1.75v-0.76h-1.75v-2.17h-0.93Zm11.31,10.62v-0.09c-0.04-.1-0.07-0.22-0.11-0.35s-0.05-.27-0.08-0.42-0.04-.3-0.05-0.45-0.01-.31-0.01-0.46v-4.09a2.952,2.952,0,0,0-.23-1.2,2.289,2.289,0,0,0-.63-0.86,2.737,2.737,0,0,0-.97-0.52,4.353,4.353,0,0,0-1.23-.17,3.972,3.972,0,0,0-1.32.21,3.323,3.323,0,0,0-1.02.56,2.729,2.729,0,0,0-.66.79,2.053,2.053,0,0,0-.23.92l0.93,0.01a1.409,1.409,0,0,1,.17-0.66,1.831,1.831,0,0,1,.47-0.54,2.173,2.173,0,0,1,.71-0.37,2.88,2.88,0,0,1,.9-0.13,2.271,2.271,0,0,1,1.62.52,1.86,1.86,0,0,1,.56,1.42v0.97h-1.73a6.581,6.581,0,0,0-1.6.18,3.826,3.826,0,0,0-1.21.53,2.274,2.274,0,0,0-1.02,1.96,2.3,2.3,0,0,0,.19.95,2.182,2.182,0,0,0,.55.76,2.456,2.456,0,0,0,.86.51,3.231,3.231,0,0,0,1.11.18,3.95,3.95,0,0,0,.93-0.11,4.21,4.21,0,0,0,.78-0.29,3.3,3.3,0,0,0,.65-0.42,4.041,4.041,0,0,0,.5-0.52c0.01,0.22.03,0.43,0.06,0.64a2.286,2.286,0,0,0,.12.54h0.99Zm-4.7-.8a1.76,1.76,0,0,1-.6-0.35,1.664,1.664,0,0,1-.38-0.53,1.7,1.7,0,0,1-.13-0.64,1.531,1.531,0,0,1,.21-0.79,1.749,1.749,0,0,1,.59-0.59,3.26,3.26,0,0,1,.96-0.37,6.079,6.079,0,0,1,1.28-.13h1.59v1.86a2.513,2.513,0,0,1-.41.66,2.8,2.8,0,0,1-.61.52,3.1,3.1,0,0,1-.78.36,3.5,3.5,0,0,1-.94.13A2.36,2.36,0,0,1,2567.36,2921.77Zm7.28-7.65v8.45h0.93v-5.8a4.3,4.3,0,0,1,.31-0.74,2.574,2.574,0,0,1,.5-0.64,2.215,2.215,0,0,1,.7-0.45,2.464,2.464,0,0,1,.94-0.17,3.086,3.086,0,0,1,.83.11,1.557,1.557,0,0,1,.65.37,1.711,1.711,0,0,1,.42.68,3.155,3.155,0,0,1,.15,1.05v5.59H2581v-5.59a2.226,2.226,0,0,1,.21-0.76,2.373,2.373,0,0,1,.47-0.71,2.711,2.711,0,0,1,.75-0.52,2.606,2.606,0,0,1,1.04-.22,3.561,3.561,0,0,1,.83.1,1.456,1.456,0,0,1,.65.37,1.723,1.723,0,0,1,.42.7,3.5,3.5,0,0,1,.15,1.11v5.52h0.93v-5.51a4.43,4.43,0,0,0-.19-1.4,2.338,2.338,0,0,0-.54-0.97,1.969,1.969,0,0,0-.87-0.55,3.488,3.488,0,0,0-1.16-.18,3.142,3.142,0,0,0-.94.13,3.014,3.014,0,0,0-.8.34,2.972,2.972,0,0,0-.65.52,3.305,3.305,0,0,0-.48.65,2.18,2.18,0,0,0-.94-1.25,3.1,3.1,0,0,0-1.59-.39,3.454,3.454,0,0,0-.87.11,3.117,3.117,0,0,0-.75.31,2.862,2.862,0,0,0-.62.48,3.74,3.74,0,0,0-.48.63l-0.04-1.37h-0.89Zm21.33,4.14a6.93,6.93,0,0,0-.21-1.77,3.969,3.969,0,0,0-.63-1.36,2.913,2.913,0,0,0-1.01-.87,3.046,3.046,0,0,0-1.38-.3,3.143,3.143,0,0,0-1.55.36,3.016,3.016,0,0,0-1.08.99l-0.05-1.19h-0.86v11.7h0.92v-4.31a2.956,2.956,0,0,0,1.09.89,3.45,3.45,0,0,0,1.56.33,2.874,2.874,0,0,0,1.36-.32,3,3,0,0,0,1-.88,3.969,3.969,0,0,0,.63-1.36,6.747,6.747,0,0,0,.21-1.74v-0.17Zm-0.93.17a6.081,6.081,0,0,1-.15,1.38,3.5,3.5,0,0,1-.46,1.11,2.236,2.236,0,0,1-.78.75,2.136,2.136,0,0,1-1.1.27,2.883,2.883,0,0,1-.86-0.12,2.484,2.484,0,0,1-.68-0.31,2.332,2.332,0,0,1-.52-0.47,2.618,2.618,0,0,1-.37-0.6v-4.05a3.054,3.054,0,0,1,.34-0.61,2.241,2.241,0,0,1,.5-0.52,2.084,2.084,0,0,1,.68-0.35,2.725,2.725,0,0,1,.89-0.14,2.238,2.238,0,0,1,1.12.27,2.392,2.392,0,0,1,.78.74,3.5,3.5,0,0,1,.46,1.11,6.056,6.056,0,0,1,.15,1.37v0.17Z" transform="translate(-2538 -2872)"/>
</svg>
