<svg xmlns="http://www.w3.org/2000/svg" xmlns:xlink="http://www.w3.org/1999/xlink" width="71" height="72" viewBox="0 0 71 72">
  <metadata><?xpacket begin="﻿" id="W5M0MpCehiHzreSzNTczkc9d"?>
<x:xmpmeta xmlns:x="adobe:ns:meta/" x:xmptk="Adobe XMP Core 5.6-c138 79.159824, 2016/09/14-01:09:01        ">
   <rdf:RDF xmlns:rdf="http://www.w3.org/1999/02/22-rdf-syntax-ns#">
      <rdf:Description rdf:about=""/>
   </rdf:RDF>
</x:xmpmeta>
                                                                                                    
                                                                                                    
                                                                                                    
                                                                                                    
                                                                                                    
                                                                                                    
                                                                                                    
                                                                                                    
                                                                                                    
                                                                                                    
                                                                                                    
                                                                                                    
                                                                                                    
                                                                                                    
                                                                                                    
                                                                                                    
                                                                                                    
                                                                                                    
                                                                                                    
                                                                                                    
                           
<?xpacket end="w"?></metadata>
<defs>
    <style>
      .cls-1, .cls-2 {
        fill-rule: evenodd;
      }

      .cls-1 {
        fill: url(#linear-gradient);
      }

      .cls-2 {
        fill: #fff;
      }
    </style>
    <linearGradient id="linear-gradient" x1="526" y1="224" x2="597" y2="224" gradientUnits="userSpaceOnUse">
      <stop offset="0" stop-color="#06beb6"/>
      <stop offset="1" stop-color="#48b1bf"/>
    </linearGradient>
  </defs>
  <path id="Shape_3_copy_2" data-name="Shape 3 copy 2" class="cls-1" d="M588.089,233.426a28.158,28.158,0,0,1-53.174,0h53.174Zm-53.174-18.884a28.158,28.158,0,0,1,53.174,0H534.915Zm-8.915,16V217.428a1.2,1.2,0,0,1,1.045-1.313h68.913A1.2,1.2,0,0,1,597,217.428v13.111a1.2,1.2,0,0,1-1.045,1.313H527.045A1.2,1.2,0,0,1,526,230.539Zm63.745-16A29.7,29.7,0,0,0,587.809,210a0.008,0.008,0,0,0,0,0c-0.043-.083-0.088-0.165-0.132-0.248a0.031,0.031,0,0,1,0-.01c-0.044-.08-0.088-0.161-0.133-0.241l-0.007-.014c-0.044-.08-0.089-0.159-0.133-0.238l-0.009-.016-0.135-.235-0.009-.016c-0.045-.079-0.091-0.157-0.137-0.234l-0.009-.016c-0.046-.078-0.093-0.156-0.14-0.233,0-.005,0-0.009-0.007-0.013l-0.144-.236,0-.007a30,30,0,0,0-2.509-3.477l-0.011-.013-0.169-.2c-0.006-.007-0.012-0.015-0.019-0.022q-0.081-.1-0.165-0.192L583.9,204.3l-0.162-.184-0.03-.034-0.161-.18-0.033-.036c-0.053-.059-0.106-0.118-0.16-0.176l-0.036-.038c-0.053-.058-0.106-0.116-0.16-0.173l-0.037-.039c-0.054-.057-0.107-0.114-0.162-0.17l-0.037-.039c-0.054-.057-0.109-0.113-0.163-0.169l-0.037-.038-0.167-.169c-0.011-.012-0.023-0.023-0.035-0.035-0.056-.057-0.113-0.113-0.17-0.169l-0.032-.032c-0.058-.058-0.117-0.115-0.175-0.171l-0.027-.026-0.183-.176-0.018-.016-0.194-.183,0,0q-0.831-.772-1.719-1.482l-0.015-.013-0.193-.152-0.037-.029-0.181-.14-0.051-.039-0.172-.131-0.061-.046c-0.055-.042-0.111-0.083-0.168-0.125l-0.066-.049-0.165-.12-0.072-.052-0.162-.116-0.076-.054-0.161-.112-0.079-.056-0.159-.109-0.083-.056-0.158-.107L577.86,199l-0.159-.1-0.086-.056-0.159-.1-0.087-.055-0.16-.1-0.087-.054-0.161-.1-0.087-.053-0.164-.1-0.085-.05-0.167-.1-0.083-.048-0.17-.1-0.078-.043-0.178-.1-0.066-.037-0.191-.1-0.041-.022c-0.311-.169-0.624-0.333-0.942-0.491l-0.046-.023-0.182-.089-0.084-.042-0.168-.08-0.1-.047-0.161-.075-0.107-.05-0.156-.071-0.114-.051-0.153-.068-0.118-.052-0.152-.065-0.121-.052-0.15-.063-0.124-.051-0.149-.061-0.126-.051-0.149-.059-0.128-.05-0.148-.057-0.13-.049-0.148-.055-0.131-.049-0.148-.053-0.133-.048-0.147-.051-0.136-.047-0.146-.05-0.137-.045-0.147-.049-0.138-.044-0.146-.046-0.141-.044-0.145-.045-0.142-.042-0.145-.043-0.145-.042-0.143-.041-0.15-.041-0.14-.038-0.157-.042-0.134-.035-0.188-.048-0.182-.045c-0.071-.017-0.141-0.035-0.212-0.051l-0.124-.029-0.17-.04-0.133-.029-0.163-.036-0.137-.029-0.16-.033-0.139-.028-0.159-.032-0.14-.026-0.159-.03-0.141-.025-0.159-.028-0.142-.025-0.159-.026-0.143-.023-0.159-.024-0.144-.022-0.159-.022-0.144-.02-0.16-.022-0.145-.018-0.161-.02-0.145-.017-0.161-.018-0.145-.015-0.162-.017-0.145-.014-0.164-.015L564,194.188l-0.166-.014-0.143-.01-0.167-.012c-0.048,0-.095-0.007-0.143-0.009l-0.17-.01-0.141-.008-0.173-.009-0.138-.006-0.179-.007-0.134,0-0.188,0-0.125,0-0.208,0-0.106,0H561.5c-0.1,0-.21,0-0.315,0h-0.105l-0.209,0-0.126,0-0.187,0-0.134,0-0.179.007-0.138.006-0.173.009-0.141.008-0.17.01-0.142.009c-0.056,0-.112.007-0.168,0.012l-0.143.01-0.166.014-0.144.012-0.164.015-0.144.014-0.163.017-0.145.015-0.161.018-0.145.017-0.161.02-0.145.018-0.159.022-0.145.02-0.159.022-0.144.022-0.159.024-0.143.023-0.159.026-0.142.025-0.159.028-0.141.025-0.159.03-0.14.026-0.159.032-0.139.028-0.16.033-0.137.029-0.163.036-0.133.029-0.17.04-0.124.029-0.217.052-0.173.043-0.192.049-0.133.035-0.158.042-0.14.038-0.149.041-0.143.041-0.146.042-0.144.043-0.143.042-0.145.045-0.141.044-0.146.046-0.138.044-0.147.049-0.137.045-0.146.05-0.136.047-0.147.051-0.133.048-0.147.053-0.132.049-0.148.055-0.13.049-0.148.057-0.128.05-0.149.059-0.126.051-0.149.061-0.124.051-0.15.063-0.121.052-0.152.065-0.117.052-0.154.068-0.113.051-0.157.071-0.108.05-0.16.075-0.1.047-0.168.081-0.083.04c-0.061.03-.122,0.059-0.182,0.09l-0.048.023q-0.476.239-.942,0.491l-0.04.022-0.19.1-0.067.037-0.178.1-0.077.043-0.171.1-0.083.048-0.166.1-0.086.05-0.164.1-0.086.053-0.162.1-0.087.054-0.16.1-0.087.055-0.159.1-0.086.056-0.158.1-0.085.056-0.158.106-0.083.056-0.159.109-0.079.056-0.161.112-0.076.054-0.162.116-0.072.052-0.164.12-0.067.049-0.168.125-0.06.046-0.173.131-0.051.039-0.181.14-0.037.03c-0.065.05-.129,0.1-0.192,0.151l-0.017.013q-0.887.71-1.717,1.482l0,0-0.194.182-0.018.018c-0.061.058-.122,0.116-0.182,0.175l-0.027.026c-0.059.056-.117,0.113-0.176,0.171l-0.032.032-0.17.169-0.035.035c-0.056.056-.111,0.112-0.166,0.169-0.013.012-.025,0.025-0.037,0.038l-0.164.168c-0.012.014-.025,0.027-0.038,0.04l-0.161.17-0.037.039-0.16.173-0.036.038-0.16.176-0.033.037c-0.054.059-.108,0.119-0.161,0.179l-0.03.034-0.162.184-0.025.029-0.165.192-0.019.022-0.169.2-0.011.013a30,30,0,0,0-2.509,3.477l0,0.007-0.145.236a0.075,0.075,0,0,1-.007.012c-0.047.078-.094,0.156-0.14,0.234l-0.009.016c-0.046.077-.091,0.155-0.137,0.233l-0.009.017-0.135.235-0.009.016c-0.044.079-.089,0.158-0.132,0.238a0.064,0.064,0,0,0-.008.014c-0.045.08-.089,0.16-0.132,0.241l-0.006.011-0.132.247s0,0,0,0a29.74,29.74,0,0,0-1.936,4.546h-5.653A3.612,3.612,0,0,1,530,210.556h0a3.616,3.616,0,0,0,2.269-4.513h0a3.6,3.6,0,0,1,3.366-4.7h0a3.582,3.582,0,0,0,3.534-3.582,3.566,3.566,0,0,1,4.634-3.412h0a3.547,3.547,0,0,0,4.452-2.3,3.54,3.54,0,0,1,5.448-1.794h0a3.527,3.527,0,0,0,4.936-.792h0a3.529,3.529,0,0,1,5.728,0h0a3.525,3.525,0,0,0,4.935.792h0a3.54,3.54,0,0,1,5.448,1.794,3.547,3.547,0,0,0,4.452,2.3h0a3.565,3.565,0,0,1,4.634,3.412,3.582,3.582,0,0,0,3.534,3.582h0a3.6,3.6,0,0,1,3.367,4.7h0A3.616,3.616,0,0,0,593,210.556h0a3.612,3.612,0,0,1,2.394,3.986h-5.653Zm-61.49,1.573h0Zm5,17.311h0a29.686,29.686,0,0,0,1.936,4.545l0,0,0.132,0.248,0.006,0.01c0.043,0.081.087,0.161,0.132,0.242l0.007,0.013c0.044,0.08.089,0.159,0.133,0.238l0.009,0.016,0.135,0.235,0.009,0.017c0.046,0.078.091,0.156,0.137,0.233l0.009,0.016c0.046,0.078.093,0.156,0.14,0.234a0.075,0.075,0,0,1,.007.012l0.145,0.236,0,0.007a29.929,29.929,0,0,0,2.509,3.478l0.011,0.012,0.169,0.2,0.019,0.021,0.165,0.192,0.025,0.029,0.163,0.185,0.029,0.033,0.161,0.18,0.033,0.036c0.053,0.059.107,0.118,0.161,0.176l0.034,0.038,0.161,0.173,0.037,0.039,0.162,0.171,0.037,0.038c0.054,0.057.109,0.113,0.164,0.17l0.036,0.037,0.167,0.169,0.035,0.035c0.056,0.057.113,0.113,0.17,0.17l0.032,0.031,0.176,0.172,0.026,0.025,0.183,0.176,0.018,0.016,0.194,0.183h0q0.831,0.775,1.721,1.485l0.014,0.012,0.194,0.153,0.036,0.028,0.182,0.141,0.049,0.038,0.174,0.132,0.06,0.045c0.056,0.042.112,0.084,0.169,0.125,0.021,0.017.043,0.033,0.065,0.049l0.166,0.121,0.071,0.051,0.163,0.117,0.075,0.053,0.161,0.113,0.079,0.055,0.16,0.109L544.9,248.8l0.16,0.107,0.083,0.055,0.16,0.1,0.085,0.055,0.16,0.1,0.085,0.054,0.161,0.1,0.086,0.053,0.163,0.1c0.028,0.018.057,0.035,0.086,0.052,0.054,0.034.109,0.067,0.164,0.1l0.084,0.05,0.168,0.1,0.082,0.047,0.172,0.1,0.076,0.043,0.179,0.1,0.065,0.036,0.192,0.106,0.038,0.021q0.47,0.255.948,0.494l0.043,0.021,0.184,0.091,0.082,0.04,0.169,0.08,0.1,0.047,0.162,0.076,0.106,0.049,0.157,0.071,0.113,0.051,0.154,0.068,0.117,0.052,0.152,0.065,0.121,0.052,0.15,0.063,0.123,0.051,0.151,0.061,0.125,0.051,0.149,0.059,0.128,0.05,0.148,0.057,0.13,0.049,0.148,0.056,0.131,0.048,0.148,0.053,0.133,0.048,0.148,0.052,0.134,0.046,0.148,0.05,0.136,0.045,0.147,0.049,0.138,0.044,0.147,0.047,0.139,0.043,0.146,0.045,0.142,0.042,0.146,0.043,0.144,0.042,0.144,0.041,0.148,0.041,0.141,0.039,0.156,0.041,0.135,0.035,0.187,0.048,0.185,0.046,0.21,0.05,0.125,0.03,0.169,0.039,0.134,0.029,0.162,0.036,0.137,0.029,0.16,0.033,0.139,0.028,0.159,0.032,0.141,0.027,0.158,0.029,0.142,0.026,0.158,0.028,0.143,0.024,0.158,0.026,0.143,0.023,0.159,0.024,0.144,0.022,0.159,0.023,0.145,0.019,0.159,0.022,0.145,0.018,0.161,0.02,0.145,0.017,0.161,0.018,0.145,0.016,0.163,0.016,0.144,0.014,0.164,0.015,0.144,0.012,0.166,0.014,0.143,0.011,0.168,0.011,0.142,0.01,0.17,0.01,0.141,0.007,0.173,0.009,0.138,0.006,0.179,0.007,0.134,0,0.188,0,0.125,0,0.208,0,0.106,0h0.629l0.105,0,0.209,0,0.126,0,0.187,0,0.134,0,0.179-.007,0.138-.006,0.173-.009,0.141-.007,0.17-.01,0.143-.01,0.167-.011,0.144-.011,0.165-.014,0.144-.012,0.164-.015,0.145-.014,0.162-.016,0.145-.016,0.162-.018,0.144-.017,0.161-.02,0.145-.018,0.16-.021,0.144-.02,0.159-.023,0.144-.022,0.159-.024,0.143-.023,0.159-.026,0.142-.024,0.159-.028,0.141-.026,0.159-.03,0.14-.026,0.159-.032,0.139-.028,0.16-.033,0.137-.029,0.163-.036,0.133-.029,0.169-.039,0.126-.03,0.209-.05,0.184-.046,0.188-.048,0.134-.035c0.052-.014.105-0.027,0.157-0.042l0.141-.038,0.148-.041,0.145-.041,0.144-.042,0.145-.043,0.142-.042,0.146-.045,0.14-.043,0.146-.047,0.138-.044,0.147-.049,0.136-.045,0.148-.05,0.134-.046,0.148-.052,0.133-.048,0.148-.053,0.131-.048,0.148-.056,0.13-.049,0.148-.057,0.128-.05,0.149-.059,0.126-.051,0.15-.061,0.123-.051,0.151-.063,0.12-.052,0.152-.065,0.117-.052,0.154-.068,0.113-.051,0.157-.071,0.107-.05,0.162-.075,0.1-.046,0.169-.081,0.082-.04,0.184-.091,0.043-.021q0.478-.238.949-0.5l0.037-.02,0.193-.106,0.064-.036,0.179-.1,0.076-.043,0.172-.1c0.028-.015.055-0.031,0.082-0.047l0.168-.1,0.084-.05,0.164-.1,0.086-.053,0.163-.1,0.086-.053,0.161-.1,0.085-.054,0.161-.1,0.084-.055,0.16-.1,0.083-.055,0.16-.107,0.081-.056c0.054-.036.107-0.073,0.16-0.11l0.079-.054,0.161-.113,0.075-.053,0.163-.117,0.071-.051,0.166-.121,0.066-.049,0.169-.125,0.059-.045,0.174-.132,0.05-.038,0.181-.141,0.036-.029,0.194-.152L580,247.4q0.89-.709,1.721-1.484l0,0,0.195-.183a0.129,0.129,0,0,1,.017-0.016l0.184-.176,0.025-.025,0.176-.172,0.032-.031,0.171-.17,0.034-.035,0.167-.169,0.036-.037c0.055-.056.11-0.113,0.164-0.17l0.037-.038q0.083-.085.162-0.171l0.037-.039c0.054-.057.107-0.115,0.161-0.173l0.035-.038c0.054-.058.107-0.117,0.161-0.176l0.032-.036,0.161-.18,0.03-.033,0.162-.185,0.025-.029,0.166-.192,0.018-.021,0.17-.2,0.01-.012a29.929,29.929,0,0,0,2.509-3.478l0-.007,0.144-.236,0.007-.012c0.047-.078.094-0.156,0.14-0.235l0.009-.014c0.046-.078.092-0.156,0.137-0.234l0.009-.017,0.135-.235,0.009-.016c0.044-.079.089-0.158,0.133-0.238l0.007-.013,0.133-.242a0.031,0.031,0,0,1,0-.01c0.044-.083.089-0.165,0.132-0.248a0.005,0.005,0,0,0,0,0,29.728,29.728,0,0,0,1.936-4.545H595.4A3.612,3.612,0,0,1,593,237.411h0a3.616,3.616,0,0,0-2.268,4.513h0a3.6,3.6,0,0,1-3.367,4.7h0a3.582,3.582,0,0,0-3.534,3.582h0a3.565,3.565,0,0,1-4.634,3.412h0a3.547,3.547,0,0,0-4.452,2.3h0a3.54,3.54,0,0,1-5.448,1.794h0a3.525,3.525,0,0,0-4.935.792h0a3.529,3.529,0,0,1-5.728,0h0a3.527,3.527,0,0,0-4.936-.792h0a3.54,3.54,0,0,1-5.448-1.794h0a3.547,3.547,0,0,0-4.452-2.3h0a3.565,3.565,0,0,1-4.634-3.412h0a3.582,3.582,0,0,0-3.534-3.582h0a3.6,3.6,0,0,1-3.366-4.7h0A3.616,3.616,0,0,0,530,237.411h0a3.612,3.612,0,0,1-2.394-3.985h5.653Z" transform="translate(-526 -188)"/>
  <path id="Aproved" class="cls-2" d="M542.958,228.39h0.871l-3.751-9.953h-0.8l-3.751,9.953h0.878l1.021-2.789h4.5Zm-3.281-8.928,1.987,5.421h-3.975Zm11.689,5.161a5.966,5.966,0,0,0-.187-1.555,3.567,3.567,0,0,0-.548-1.186,2.481,2.481,0,0,0-.889-0.759,2.633,2.633,0,0,0-1.2-.266,2.794,2.794,0,0,0-1.362.314,2.709,2.709,0,0,0-.946.868l-0.041-1.045h-0.755v10.24h0.81V227.46a2.6,2.6,0,0,0,.95.783,3.052,3.052,0,0,0,1.364.284,2.5,2.5,0,0,0,1.188-.277,2.585,2.585,0,0,0,.882-0.773,3.6,3.6,0,0,0,.548-1.186,5.805,5.805,0,0,0,.187-1.524v-0.144Zm-0.817.144a5.217,5.217,0,0,1-.133,1.21,3.063,3.063,0,0,1-.4.974,1.982,1.982,0,0,1-.678.649,1.89,1.89,0,0,1-.966.236,2.628,2.628,0,0,1-.749-0.1,2.214,2.214,0,0,1-.6-0.273,2.046,2.046,0,0,1-.456-0.414,2.438,2.438,0,0,1-.323-0.519v-3.548a2.77,2.77,0,0,1,.3-0.537,2.025,2.025,0,0,1,.436-0.451,2.06,2.06,0,0,1,.595-0.311,2.434,2.434,0,0,1,.783-0.116,1.933,1.933,0,0,1,.974.236,1.983,1.983,0,0,1,.684.646,3.021,3.021,0,0,1,.4.97,5.187,5.187,0,0,1,.133,1.2v0.144Zm6.393-3.821a0.991,0.991,0,0,0-.231-0.062,1.8,1.8,0,0,0-.306-0.027,2.179,2.179,0,0,0-1.263.352,2.451,2.451,0,0,0-.814.96l-0.013-1.175h-0.8v7.4h0.81v-5.079a2.94,2.94,0,0,1,.276-0.673,2.024,2.024,0,0,1,.429-0.527,1.87,1.87,0,0,1,.589-0.345,2.151,2.151,0,0,1,.749-0.123,3.014,3.014,0,0,1,.551.048Zm1.03,3.862a4.542,4.542,0,0,0,.235,1.49,3.471,3.471,0,0,0,.667,1.179,3.031,3.031,0,0,0,1.038.773,3.45,3.45,0,0,0,2.709,0,3,3,0,0,0,1.035-.773,3.474,3.474,0,0,0,.66-1.179,4.623,4.623,0,0,0,.232-1.49v-0.226a4.631,4.631,0,0,0-.232-1.49,3.474,3.474,0,0,0-.66-1.179,3.039,3.039,0,0,0-1.038-.776,3.228,3.228,0,0,0-1.365-.28,3.17,3.17,0,0,0-1.348.28,3.047,3.047,0,0,0-1.035.776,3.514,3.514,0,0,0-.663,1.179,4.551,4.551,0,0,0-.235,1.49v0.226Zm0.817-.226a4,4,0,0,1,.163-1.145,3.055,3.055,0,0,1,.476-0.967,2.37,2.37,0,0,1,.773-0.666,2.161,2.161,0,0,1,1.052-.25,2.216,2.216,0,0,1,1.065.25,2.344,2.344,0,0,1,.78.666,3.055,3.055,0,0,1,.476.967,4,4,0,0,1,.163,1.145v0.226a4.048,4.048,0,0,1-.163,1.159,3.008,3.008,0,0,1-.476.964,2.361,2.361,0,0,1-.773.659,2.407,2.407,0,0,1-2.12,0,2.345,2.345,0,0,1-.777-0.659,3.008,3.008,0,0,1-.476-0.964,4.048,4.048,0,0,1-.163-1.159v-0.226Zm7.72-3.588h-0.837l2.764,7.4h0.66l2.75-7.4h-0.837l-2.24,6.268Zm10.682,7.43a3.015,3.015,0,0,0,.722-0.28,2.622,2.622,0,0,0,.562-0.417,3.586,3.586,0,0,0,.425-0.506l-0.511-.39a2.557,2.557,0,0,1-.908.766,2.639,2.639,0,0,1-1.154.239,2.282,2.282,0,0,1-1.028-.229,2.434,2.434,0,0,1-.8-0.625,2.876,2.876,0,0,1-.518-0.933,3.528,3.528,0,0,1-.184-1.145v-0.158h5.256v-0.5a4.628,4.628,0,0,0-.191-1.36,3.083,3.083,0,0,0-.562-1.073,2.555,2.555,0,0,0-.915-0.7,2.922,2.922,0,0,0-1.246-.253,2.8,2.8,0,0,0-1.2.266,3.1,3.1,0,0,0-1,.756,3.639,3.639,0,0,0-.691,1.182,4.443,4.443,0,0,0-.256,1.549V224.9a4.181,4.181,0,0,0,.245,1.456,3.475,3.475,0,0,0,.685,1.145,3.1,3.1,0,0,0,1.044.752,3.227,3.227,0,0,0,1.328.27A3.6,3.6,0,0,0,577.191,228.424Zm-0.143-6.668a1.964,1.964,0,0,1,.651.536,2.431,2.431,0,0,1,.4.769,3.384,3.384,0,0,1,.15.9v0.089h-4.418a3.783,3.783,0,0,1,.262-1.022,2.672,2.672,0,0,1,.5-0.789,2.115,2.115,0,0,1,.7-0.506,2.06,2.06,0,0,1,.858-0.178A1.926,1.926,0,0,1,577.048,221.756Zm3.616,3.011a5.514,5.514,0,0,0,.2,1.524,3.637,3.637,0,0,0,.565,1.186,2.626,2.626,0,0,0,.892.773,2.487,2.487,0,0,0,1.177.277,2.9,2.9,0,0,0,1.365-.3,2.584,2.584,0,0,0,.936-0.823l0.034,0.984h0.763v-10.5h-0.81v4.149a2.679,2.679,0,0,0-.93-0.868,2.714,2.714,0,0,0-1.344-.314,2.608,2.608,0,0,0-1.188.266,2.534,2.534,0,0,0-.895.759,3.607,3.607,0,0,0-.565,1.186,5.666,5.666,0,0,0-.2,1.555v0.144Zm0.824-.144a5.359,5.359,0,0,1,.129-1.2,3.038,3.038,0,0,1,.395-0.97,1.962,1.962,0,0,1,.674-0.646,1.91,1.91,0,0,1,.974-0.236,2.4,2.4,0,0,1,.789.119,2.082,2.082,0,0,1,.6.322,2.023,2.023,0,0,1,.436.461,3.331,3.331,0,0,1,.3.54v3.473a2.779,2.779,0,0,1-.331.533,2.023,2.023,0,0,1-.456.424,2.127,2.127,0,0,1-.6.277,2.659,2.659,0,0,1-.752.1,1.9,1.9,0,0,1-.963-0.233,1.95,1.95,0,0,1-.671-0.642,3.045,3.045,0,0,1-.395-0.968,5.336,5.336,0,0,1-.129-1.206v-0.144Z" transform="translate(-526 -188)"/>
</svg>
